REM DIRINDEX 1\5,1\2\6,1\2\7,1\3\8,1\3\9,1\4\10,1\4\11,1\4\12
REM DIRNAME folder01,folder02,folder03,folder04,folder05,folder06,folder07,folder08,folder09,folder10,folder11,folder12
TITLE ""
FILE "EJE_DB3000_5th_4B_46.mp3" MP3
  TRACK 01 AUDIO
    TITLE "0:"
    INDEX 01 00:00:00
  TRACK 02 AUDIO
    TITLE "10:cjc026_09969"
    INDEX 01 00:00:05
  TRACK 03 AUDIO
    TITLE "0:"
    INDEX 01 00:01:40
  TRACK 04 AUDIO
    TITLE "11:cjc026_09970"
    INDEX 01 00:01:66
  TRACK 05 AUDIO
    TITLE "0:"
    INDEX 01 00:03:12
  TRACK 06 AUDIO
    TITLE "12:cjc026_09971"
    INDEX 01 00:03:37
  TRACK 07 AUDIO
    TITLE "0:"
    INDEX 01 00:04:72
  TRACK 08 AUDIO
    TITLE "10:cjc026_09972"
    INDEX 01 00:05:22
  TRACK 09 AUDIO
    TITLE "0:"
    INDEX 01 00:06:24
  TRACK 10 AUDIO
    TITLE "11:cjc026_09973"
    INDEX 01 00:06:49
  TRACK 11 AUDIO
    TITLE "0:"
    INDEX 01 00:07:39
  TRACK 12 AUDIO
    TITLE "12:cjc026_09974"
    INDEX 01 00:07:64
  TRACK 13 AUDIO
    TITLE "0:"
    INDEX 01 00:08:68
  TRACK 14 AUDIO
    TITLE "10:cjc026_09975"
    INDEX 01 00:09:18
  TRACK 15 AUDIO
    TITLE "0:"
    INDEX 01 00:10:12
  TRACK 16 AUDIO
    TITLE "11:cjc026_09976"
    INDEX 01 00:10:39
  TRACK 17 AUDIO
    TITLE "0:"
    INDEX 01 00:11:33
  TRACK 18 AUDIO
    TITLE "12:cjc026_09977"
    INDEX 01 00:11:58
  TRACK 19 AUDIO
    TITLE "0:"
    INDEX 01 00:12:54
  TRACK 20 AUDIO
    TITLE "10:cjc026_09978"
    INDEX 01 00:13:04
  TRACK 21 AUDIO
    TITLE "0:"
    INDEX 01 00:14:09
  TRACK 22 AUDIO
    TITLE "11:cjc026_09979"
    INDEX 01 00:14:35
  TRACK 23 AUDIO
    TITLE "0:"
    INDEX 01 00:15:36
  TRACK 24 AUDIO
    TITLE "12:cjc026_09980"
    INDEX 01 00:15:62
  TRACK 25 AUDIO
    TITLE "0:"
    INDEX 01 00:16:67
  TRACK 26 AUDIO
    TITLE "10:cjc026_09981"
    INDEX 01 00:17:18
  TRACK 27 AUDIO
    TITLE "0:"
    INDEX 01 00:18:15
  TRACK 28 AUDIO
    TITLE "11:cjc026_09982"
    INDEX 01 00:18:42
  TRACK 29 AUDIO
    TITLE "0:"
    INDEX 01 00:20:20
  TRACK 30 AUDIO
    TITLE "12:cjc026_09983"
    INDEX 01 00:20:45
  TRACK 31 AUDIO
    TITLE "0:"
    INDEX 01 00:21:43
  TRACK 32 AUDIO
    TITLE "10:cjc026_09984"
    INDEX 01 00:21:68
  TRACK 33 AUDIO
    TITLE "0:"
    INDEX 01 00:22:70
  TRACK 34 AUDIO
    TITLE "11:cjc026_09985"
    INDEX 01 00:23:20
  TRACK 35 AUDIO
    TITLE "0:"
    INDEX 01 00:24:57
  TRACK 36 AUDIO
    TITLE "12:cjc026_09986"
    INDEX 01 00:25:07
  TRACK 37 AUDIO
    TITLE "0:"
    INDEX 01 00:26:07
  TRACK 38 AUDIO
    TITLE "10:cjc026_09987"
    INDEX 01 00:26:32
  TRACK 39 AUDIO
    TITLE "0:"
    INDEX 01 00:27:55
  TRACK 40 AUDIO
    TITLE "11:cjc026_09988"
    INDEX 01 00:28:08
  TRACK 41 AUDIO
    TITLE "0:"
    INDEX 01 00:29:40
  TRACK 42 AUDIO
    TITLE "12:cjc026_09989"
    INDEX 01 00:29:66
  TRACK 43 AUDIO
    TITLE "0:"
    INDEX 01 00:31:14
  TRACK 44 AUDIO
    TITLE "10:cjc026_09990"
    INDEX 01 00:31:41
  TRACK 45 AUDIO
    TITLE "0:"
    INDEX 01 00:32:74
  TRACK 46 AUDIO
    TITLE "11:cjc026_09991"
    INDEX 01 00:33:24
  TRACK 47 AUDIO
    TITLE "0:"
    INDEX 01 00:34:71
  TRACK 48 AUDIO
    TITLE "12:cjc026_09992"
    INDEX 01 00:35:21
  TRACK 49 AUDIO
    TITLE "0:"
    INDEX 01 00:36:52
  TRACK 50 AUDIO
    TITLE "10:cjc026_09993"
    INDEX 01 00:37:03
  TRACK 51 AUDIO
    TITLE "0:"
    INDEX 01 00:38:12
  TRACK 52 AUDIO
    TITLE "11:cjc026_09994"
    INDEX 01 00:38:41
  TRACK 53 AUDIO
    TITLE "0:"
    INDEX 01 00:40:42
  TRACK 54 AUDIO
    TITLE "12:cjc026_09995"
    INDEX 01 00:40:70
  TRACK 55 AUDIO
    TITLE "0:"
    INDEX 01 00:42:02
  TRACK 56 AUDIO
    TITLE "10:cjc026_09996"
    INDEX 01 00:42:31
  TRACK 57 AUDIO
    TITLE "0:"
    INDEX 01 00:43:25
  TRACK 58 AUDIO
    TITLE "11:cjc026_09997"
    INDEX 01 00:43:54
  TRACK 59 AUDIO
    TITLE "0:"
    INDEX 01 00:45:51
  TRACK 60 AUDIO
    TITLE "12:cjc026_09998"
    INDEX 01 00:46:04
  TRACK 61 AUDIO
    TITLE "0:"
    INDEX 01 00:46:72
  TRACK 62 AUDIO
    TITLE "10:cjc026_09999"
    INDEX 01 00:47:27
  TRACK 63 AUDIO
    TITLE "0:"
    INDEX 01 00:48:18
  TRACK 64 AUDIO
    TITLE "11:cjc026_10000"
    INDEX 01 00:48:46
  TRACK 65 AUDIO
    TITLE "0:"
    INDEX 01 00:50:41
  TRACK 66 AUDIO
    TITLE "12:cjc026_10001"
    INDEX 01 00:50:68
  TRACK 67 AUDIO
    TITLE "0:"
    INDEX 01 00:51:56
  TRACK 68 AUDIO
    TITLE "10:cjc026_10002"
    INDEX 01 00:52:12
  TRACK 69 AUDIO
    TITLE "0:"
    INDEX 01 00:53:13
  TRACK 70 AUDIO
    TITLE "11:cjc026_10003"
    INDEX 01 00:53:39
  TRACK 71 AUDIO
    TITLE "0:"
    INDEX 01 00:55:30
  TRACK 72 AUDIO
    TITLE "12:cjc026_10004"
    INDEX 01 00:55:57
  TRACK 73 AUDIO
    TITLE "0:"
    INDEX 01 00:56:61
  TRACK 74 AUDIO
    TITLE "10:cjc026_10005"
    INDEX 01 00:57:11
  TRACK 75 AUDIO
    TITLE "0:"
    INDEX 01 00:58:22
  TRACK 76 AUDIO
    TITLE "11:cjc026_10006"
    INDEX 01 00:58:50
  TRACK 77 AUDIO
    TITLE "0:"
    INDEX 01 01:00:23
  TRACK 78 AUDIO
    TITLE "12:cjc026_10007"
    INDEX 01 01:00:49
  TRACK 79 AUDIO
    TITLE "0:"
    INDEX 01 01:01:62
  TRACK 80 AUDIO
    TITLE "10:cjc026_10008"
    INDEX 01 01:02:12
  TRACK 81 AUDIO
    TITLE "0:"
    INDEX 01 01:03:22
  TRACK 82 AUDIO
    TITLE "11:cjc026_10009"
    INDEX 01 01:03:49
  TRACK 83 AUDIO
    TITLE "0:"
    INDEX 01 01:05:17
  TRACK 84 AUDIO
    TITLE "12:cjc026_10010"
    INDEX 01 01:05:42
  TRACK 85 AUDIO
    TITLE "0:"
    INDEX 01 01:06:51
